<svg width="56" height="57" viewBox="0 0 56 57" fill="none" xmlns="http://www.w3.org/2000/svg">
<path d="M27.7617 1.15942C31.7683 1.15942 34.7511 1.15911 37.1328 1.30493C39.5107 1.45053 41.2569 1.74064 42.793 2.30493C47.9371 4.19477 51.992 8.24874 53.8818 13.3928C54.4461 14.9288 54.7353 16.6752 54.8809 19.053C55.0267 21.4348 55.0264 24.4182 55.0264 28.425C55.0264 32.4317 55.0267 35.4144 54.8809 37.7961C54.7353 40.1739 54.4461 41.9203 53.8818 43.4563C51.992 48.6004 47.9371 52.6553 42.793 54.5452C41.257 55.1094 39.5106 55.3986 37.1328 55.5442C34.7511 55.69 31.7683 55.6897 27.7617 55.6897C23.7548 55.6897 20.7715 55.69 18.3896 55.5442C16.0119 55.3986 14.2655 55.1094 12.7295 54.5452C7.58541 52.6553 3.53144 48.6004 1.6416 43.4563C1.07731 41.9203 0.787197 40.1741 0.641602 37.7961C0.495777 35.4144 0.496094 32.4317 0.496094 28.425C0.496094 24.4182 0.495768 21.4348 0.641602 19.053C0.787198 16.675 1.0773 14.9289 1.6416 13.3928C3.53144 8.24874 7.58541 4.19477 12.7295 2.30493C14.2655 1.74063 16.0117 1.45053 18.3896 1.30493C20.7715 1.1591 23.7548 1.15942 27.7617 1.15942Z" stroke="url(#paint0_linear_201_241)" stroke-width="0.991473"/>
<path d="M39.659 27.9288C39.9328 27.9288 40.1547 28.1508 40.1547 28.4246C40.1547 28.6983 39.9328 28.9203 39.659 28.9203V27.9288ZM16.1741 28.7751C15.9805 28.5815 15.9805 28.2676 16.1741 28.074L19.3289 24.9192C19.5225 24.7256 19.8364 24.7256 20.03 24.9192C20.2236 25.1128 20.2236 25.4267 20.03 25.6203L17.2257 28.4246L20.03 31.2289C20.2236 31.4225 20.2236 31.7364 20.03 31.9299C19.8364 32.1235 19.5225 32.1235 19.3289 31.9299L16.1741 28.7751ZM39.659 28.9203H16.5246V27.9288H39.659V28.9203Z" fill="url(#paint1_linear_201_241)"/>
<defs>
<linearGradient id="paint0_linear_201_241" x1="55.5225" y1="36.9789" x2="13.3045" y2="39.0427" gradientUnits="userSpaceOnUse">
<stop stop-color="#237249"/>
<stop offset="1" stop-color="#35C66B"/>
</linearGradient>
<linearGradient id="paint1_linear_201_241" x1="16.5246" y1="29.0786" x2="24.2618" y2="37.8288" gradientUnits="userSpaceOnUse">
<stop stop-color="#237249"/>
<stop offset="1" stop-color="#35C66B"/>
</linearGradient>
</defs>
</svg>
