<svg width="381" height="293" viewBox="0 0 381 293" fill="none" xmlns="http://www.w3.org/2000/svg">
<path d="M1 283L57.8668 241.859C73.2552 230.727 80.3504 211.371 75.8027 192.93L71.9448 177.286C66.6867 155.965 77.0224 133.865 96.7571 124.233L104.161 120.619C114.01 115.812 121.851 107.688 126.305 97.674L132.548 83.6396C141.28 64.0107 162.296 52.8912 183.436 56.7149L242.264 67.355C262.471 71.0098 282.689 61.0114 292.05 42.7347L297.925 31.2639C307.406 12.7546 328 2.76377 348.405 6.77451L378.931 12.7744" stroke="#D9D9D9" stroke-width="0.627515" stroke-linejoin="round"/>
<path d="M7.5 292.5L66.7237 253.234C83.1337 242.354 90.9384 222.337 86.224 203.221L82.7022 188.94C77.4441 167.619 87.7798 145.519 107.514 135.887L114.918 132.273C124.768 127.466 132.608 119.342 137.063 109.328L143.306 95.2935C152.037 75.6646 173.053 64.5451 194.194 68.3688L253.021 79.0088C273.228 82.6636 293.446 72.6653 302.807 54.3886L308.683 42.9178C318.163 24.4085 338.757 14.4176 359.163 18.4284L389.689 24.4283" stroke="#D9D9D9" stroke-width="0.627515" stroke-linejoin="round"/>
<path d="M43 288.5L77.8757 264.954C94.0752 254.017 101.731 234.135 97.0512 215.158L93.4596 200.594C88.2015 179.273 98.5372 157.173 118.272 147.541L125.676 143.927C135.525 139.12 143.366 130.996 147.82 120.982L154.063 106.947C162.795 87.3184 183.811 76.1989 204.951 80.0226L263.779 90.6627C283.985 94.3175 304.204 84.3191 313.565 66.0424L319.44 54.5716C328.921 36.0623 349.515 26.0715 369.92 30.0822L400.446 36.0821" stroke="#D9D9D9" stroke-width="0.627515" stroke-linejoin="round"/>
</svg>
